<mxfile host="65bd71144e">
    <diagram id="58XMA-p-C20267B4mfxz" name="PÃ¡gina-1">
        <mxGraphModel dx="1512" dy="461" grid="1" gridSize="10" guides="1" tooltips="1" connect="1" arrows="1" fold="1" page="1" pageScale="1" pageWidth="850" pageHeight="1100" math="0" shadow="0">
            <root>
                <mxCell id="0"/>
                <mxCell id="1" parent="0"/>
                <mxCell id="4" value="" style="edgeStyle=none;html=1;" parent="1" source="2" target="3" edge="1">
                    <mxGeometry relative="1" as="geometry"/>
                </mxCell>
                <mxCell id="2" value="INICIO" style="ellipse;whiteSpace=wrap;html=1;fillColor=#60a917;fontColor=#ffffff;strokeColor=#2D7600;" parent="1" vertex="1">
                    <mxGeometry x="220" y="10" width="70" height="40" as="geometry"/>
                </mxCell>
                <mxCell id="10" value="" style="edgeStyle=none;html=1;" edge="1" parent="1" source="3" target="9">
                    <mxGeometry relative="1" as="geometry"/>
                </mxCell>
                <mxCell id="3" value="a, b, c" style="shape=parallelogram;perimeter=parallelogramPerimeter;whiteSpace=wrap;html=1;fixedSize=1;fillColor=#0050ef;fontColor=#ffffff;strokeColor=#001DBC;" parent="1" vertex="1">
                    <mxGeometry x="212.5" y="80" width="85" height="30" as="geometry"/>
                </mxCell>
                <mxCell id="12" value="" style="edgeStyle=none;html=1;exitX=0;exitY=0.5;exitDx=0;exitDy=0;" edge="1" parent="1" source="9" target="11">
                    <mxGeometry relative="1" as="geometry">
                        <Array as="points">
                            <mxPoint x="150" y="168"/>
                        </Array>
                    </mxGeometry>
                </mxCell>
                <mxCell id="14" value="" style="edgeStyle=none;html=1;exitX=1;exitY=0.5;exitDx=0;exitDy=0;" edge="1" parent="1" source="9" target="13">
                    <mxGeometry relative="1" as="geometry">
                        <Array as="points">
                            <mxPoint x="440" y="170"/>
                        </Array>
                    </mxGeometry>
                </mxCell>
                <mxCell id="9" value="a + b, c" style="rhombus;whiteSpace=wrap;html=1;fillColor=#0050ef;strokeColor=#001DBC;fontColor=#ffffff;" vertex="1" parent="1">
                    <mxGeometry x="215" y="140" width="80" height="55" as="geometry"/>
                </mxCell>
                <mxCell id="16" value="" style="edgeStyle=none;html=1;exitX=1;exitY=0.5;exitDx=0;exitDy=0;" edge="1" parent="1" source="11" target="15">
                    <mxGeometry relative="1" as="geometry">
                        <Array as="points">
                            <mxPoint x="270" y="260"/>
                        </Array>
                    </mxGeometry>
                </mxCell>
                <mxCell id="18" value="" style="edgeStyle=none;html=1;exitX=0;exitY=0.5;exitDx=0;exitDy=0;" edge="1" parent="1" source="11" target="17">
                    <mxGeometry relative="1" as="geometry">
                        <Array as="points">
                            <mxPoint x="70" y="260"/>
                        </Array>
                    </mxGeometry>
                </mxCell>
                <mxCell id="11" value="a + b &amp;gt;c" style="rhombus;whiteSpace=wrap;html=1;fillColor=#0050ef;strokeColor=#001DBC;fontColor=#ffffff;" vertex="1" parent="1">
                    <mxGeometry x="110" y="220" width="80" height="80" as="geometry"/>
                </mxCell>
                <mxCell id="13" value="rta:si se puede crear&amp;nbsp;" style="whiteSpace=wrap;html=1;fillColor=#0050ef;strokeColor=#001DBC;fontColor=#ffffff;" vertex="1" parent="1">
                    <mxGeometry x="380" y="210" width="120" height="60" as="geometry"/>
                </mxCell>
                <mxCell id="15" value="rta:si se puede crear" style="whiteSpace=wrap;html=1;fillColor=#0050ef;strokeColor=#001DBC;fontColor=#ffffff;" vertex="1" parent="1">
                    <mxGeometry x="237.5" y="290" width="60" height="50" as="geometry"/>
                </mxCell>
                <mxCell id="20" value="" style="edgeStyle=none;html=1;exitX=0;exitY=0.5;exitDx=0;exitDy=0;" edge="1" parent="1" source="17" target="19">
                    <mxGeometry relative="1" as="geometry">
                        <Array as="points">
                            <mxPoint x="-20" y="360"/>
                        </Array>
                    </mxGeometry>
                </mxCell>
                <mxCell id="22" value="" style="edgeStyle=none;html=1;exitX=1;exitY=0.5;exitDx=0;exitDy=0;" edge="1" parent="1" source="17" target="21">
                    <mxGeometry relative="1" as="geometry">
                        <Array as="points">
                            <mxPoint x="200" y="360"/>
                        </Array>
                    </mxGeometry>
                </mxCell>
                <mxCell id="17" value="b + v &amp;gt; a" style="rhombus;whiteSpace=wrap;html=1;fillColor=#0050ef;strokeColor=#001DBC;fontColor=#ffffff;" vertex="1" parent="1">
                    <mxGeometry x="30" y="320" width="80" height="80" as="geometry"/>
                </mxCell>
                <mxCell id="19" value="rta:no se puede crear&amp;nbsp;" style="whiteSpace=wrap;html=1;fillColor=#0050ef;strokeColor=#001DBC;fontColor=#ffffff;" vertex="1" parent="1">
                    <mxGeometry x="-80" y="410" width="120" height="60" as="geometry"/>
                </mxCell>
                <mxCell id="21" value="rta: si se puede crear&amp;nbsp;" style="whiteSpace=wrap;html=1;fillColor=#0050ef;strokeColor=#001DBC;fontColor=#ffffff;" vertex="1" parent="1">
                    <mxGeometry x="140" y="390" width="120" height="60" as="geometry"/>
                </mxCell>
                <mxCell id="23" value="" style="endArrow=none;html=1;entryX=0.5;entryY=1;entryDx=0;entryDy=0;" edge="1" parent="1" target="13">
                    <mxGeometry width="50" height="50" relative="1" as="geometry">
                        <mxPoint x="440" y="560" as="sourcePoint"/>
                        <mxPoint x="210" y="320" as="targetPoint"/>
                    </mxGeometry>
                </mxCell>
                <mxCell id="24" value="" style="endArrow=none;html=1;entryX=0.75;entryY=1;entryDx=0;entryDy=0;" edge="1" parent="1" target="15">
                    <mxGeometry width="50" height="50" relative="1" as="geometry">
                        <mxPoint x="280" y="560" as="sourcePoint"/>
                        <mxPoint x="210" y="420" as="targetPoint"/>
                    </mxGeometry>
                </mxCell>
                <mxCell id="25" value="" style="endArrow=none;html=1;exitX=0.333;exitY=1.067;exitDx=0;exitDy=0;exitPerimeter=0;" edge="1" parent="1" source="19">
                    <mxGeometry width="50" height="50" relative="1" as="geometry">
                        <mxPoint x="160" y="470" as="sourcePoint"/>
                        <mxPoint x="200" y="560" as="targetPoint"/>
                        <Array as="points">
                            <mxPoint x="-40" y="560"/>
                        </Array>
                    </mxGeometry>
                </mxCell>
                <mxCell id="26" value="" style="endArrow=none;html=1;entryX=0.5;entryY=1;entryDx=0;entryDy=0;" edge="1" parent="1" target="21">
                    <mxGeometry width="50" height="50" relative="1" as="geometry">
                        <mxPoint x="200" y="560" as="sourcePoint"/>
                        <mxPoint x="210" y="420" as="targetPoint"/>
                    </mxGeometry>
                </mxCell>
                <mxCell id="27" value="" style="endArrow=none;html=1;" edge="1" parent="1">
                    <mxGeometry width="50" height="50" relative="1" as="geometry">
                        <mxPoint x="200" y="560" as="sourcePoint"/>
                        <mxPoint x="440" y="560" as="targetPoint"/>
                    </mxGeometry>
                </mxCell>
                <mxCell id="28" value="" style="endArrow=none;html=1;" edge="1" parent="1" target="29">
                    <mxGeometry width="50" height="50" relative="1" as="geometry">
                        <mxPoint x="200" y="620" as="sourcePoint"/>
                        <mxPoint x="200" y="560" as="targetPoint"/>
                    </mxGeometry>
                </mxCell>
                <mxCell id="30" style="edgeStyle=none;html=1;" edge="1" parent="1" source="29">
                    <mxGeometry relative="1" as="geometry">
                        <mxPoint x="200" y="570" as="targetPoint"/>
                    </mxGeometry>
                </mxCell>
                <mxCell id="32" value="" style="edgeStyle=none;html=1;" edge="1" parent="1" source="29" target="31">
                    <mxGeometry relative="1" as="geometry"/>
                </mxCell>
                <mxCell id="29" value="rta" style="shape=document;whiteSpace=wrap;html=1;boundedLbl=1;fillColor=#0050ef;fontColor=#ffffff;strokeColor=#001DBC;" vertex="1" parent="1">
                    <mxGeometry x="140" y="610" width="120" height="50" as="geometry"/>
                </mxCell>
                <mxCell id="31" value="fin" style="ellipse;whiteSpace=wrap;html=1;fillColor=#0050ef;fontColor=#ffffff;strokeColor=#001DBC;" vertex="1" parent="1">
                    <mxGeometry x="160" y="690" width="80" height="40" as="geometry"/>
                </mxCell>
            </root>
        </mxGraphModel>
    </diagram>
</mxfile>